<svg width="1920" height="1080" viewBox="0 0 1920 1080" fill="none" xmlns="http://www.w3.org/2000/svg" preserveAspectRatio="none">
<g clip-path="url(#clip0_9_23)">
<ellipse cx="84.3938" cy="132.396" rx="37.9616" ry="37.4652" fill="#3A2041"/>
<ellipse cx="97.0477" cy="146.882" rx="25.3077" ry="24.9768" fill="#3A2041"/>
<ellipse cx="96.0354" cy="119.907" rx="25.3077" ry="24.9768" fill="#3A2041"/>
<ellipse cx="168.416" cy="221.313" rx="63.2693" ry="62.442" fill="#3A2041"/>
<ellipse cx="137.54" cy="186.845" rx="25.3077" ry="24.9768" fill="#3A2041"/>
<ellipse cx="150.7" cy="263.774" rx="25.3077" ry="24.9768" fill="#3A2041"/>
<ellipse cx="92.4922" cy="32.4884" rx="12.6539" ry="12.4884" fill="#3A2041"/>
<ellipse cx="100.085" cy="39.9814" rx="5.06154" ry="4.99536" fill="#3A2041"/>
<ellipse cx="142.602" cy="69.9536" rx="25.3077" ry="24.9768" fill="#3A2041"/>
<ellipse cx="129.948" cy="59.4634" rx="12.6539" ry="12.4884" fill="#3A2041"/>
<ellipse cx="131.972" cy="82.442" rx="12.6539" ry="12.4884" fill="#3A2041"/>
<ellipse cx="1156.93" cy="1106.99" rx="581.065" ry="258.76" fill="#3A2041"/>
<ellipse cx="39.9606" cy="451.599" rx="212.434" ry="171.84" fill="#3A2041"/>
<ellipse cx="245.351" cy="1146.45" rx="925.756" ry="712.838" fill="#3A2041"/>
<ellipse cx="1047.71" cy="1193.91" rx="548.032" ry="258.76" fill="#4A2753"/>
<ellipse cx="151.667" cy="1261.35" rx="925.639" ry="741.811" fill="#4A2753"/>
<ellipse cx="-60.7666" cy="610.951" rx="215.776" ry="177.335" fill="#4A2753"/>
<ellipse cx="25.6392" cy="1432.19" rx="925.639" ry="741.811" fill="#5F246F"/>
</g>
<defs>
<clipPath id="clip0_9_23">
<rect width="1920" height="1080" fill="white"/>
</clipPath>
</defs>
</svg>
